<?xml version="1.0" encoding="iso-8859-1"?>
<!-- Generator: Adobe Illustrator 19.0.0, SVG Export Plug-In . SVG Version: 6.00 Build 0)  -->
<svg version="1.1" id="Layer_1" xmlns="http://www.w3.org/2000/svg" xmlns:xlink="http://www.w3.org/1999/xlink" x="0px" y="0px"
	 viewBox="0 0 512 512" style="enable-background:new 0 0 512 512;" xml:space="preserve">
<path style="fill:#F5B989;" d="M395.643,284.33c-23.878-43.349-57.989-77.224-93.589-92.94c-6.473-2.857-10.647-9.265-10.647-16.339
	V68.877C291.407,30.899,322.298,0,360.271,0c37.979,0,68.877,30.899,68.877,68.877v206.834
	C429.147,294.222,404.503,300.411,395.643,284.33z"/>
<path style="fill:#F9C896;" d="M82.853,275.711V68.877C82.853,30.899,113.751,0,151.73,0c37.973,0,68.865,30.899,68.865,68.877
	v106.174c0,7.074-4.176,13.482-10.647,16.339c-35.6,15.716-69.712,49.59-93.59,92.94C107.484,300.442,82.853,294.185,82.853,275.711
	z"/>
<path style="fill:#FED7A4;" d="M256,512c-102.918,0-203.4-29.18-203.4-132.562c0-95.755,90.381-233.939,203.4-233.939
	c114.422,0,203.4,139.748,203.4,233.939C459.4,482.796,358.965,512,256,512z"/>
<g>
	<path style="fill:#F9C896;" d="M256,145.499V512c102.963,0,203.4-29.203,203.4-132.562C459.4,285.247,370.422,145.499,256,145.499z
		"/>
	<path style="fill:#F9C896;" d="M256,512c6.083,0,12.033-0.102,17.861-0.296v-79.279c0-9.864-7.997-17.861-17.861-17.861
		c-9.864,0-17.861,7.997-17.861,17.861v79.279C243.968,511.896,249.917,512,256,512z"/>
</g>
<g>
	<path style="fill:#F5B989;" d="M256,414.563V512c6.083,0,12.033-0.102,17.861-0.296v-79.279
		C273.861,422.559,265.864,414.563,256,414.563z"/>
	<path style="fill:#F5B989;" d="M243.079,444.753l-40.169-42.101c-16.013-16.779-4.101-44.686,19.126-44.686h67.933
		c23.198,0,35.159,27.885,19.125,44.687l-40.168,42.1C261.886,452.126,250.111,452.122,243.079,444.753z"/>
</g>
<path style="fill:#F0AA7B;" d="M289.967,357.966h-33.966v92.315c4.702,0,9.404-1.842,12.923-5.528l40.168-42.1
	C325.126,385.851,313.164,357.966,289.967,357.966z"/>
<circle style="fill:#784738;" cx="165.829" cy="304.962" r="23.627"/>
<circle style="fill:#633B2E;" cx="346.173" cy="305.117" r="23.627"/>
<g>
</g>
<g>
</g>
<g>
</g>
<g>
</g>
<g>
</g>
<g>
</g>
<g>
</g>
<g>
</g>
<g>
</g>
<g>
</g>
<g>
</g>
<g>
</g>
<g>
</g>
<g>
</g>
<g>
</g>
</svg>
