<?xml version="1.0" encoding="iso-8859-1"?>
<!-- Generator: Adobe Illustrator 19.0.0, SVG Export Plug-In . SVG Version: 6.00 Build 0)  -->
<svg version="1.1" id="Layer_1" xmlns="http://www.w3.org/2000/svg" xmlns:xlink="http://www.w3.org/1999/xlink" x="0px" y="0px"
	 viewBox="0 0 512 512" style="enable-background:new 0 0 512 512;" xml:space="preserve">
<g>
	<path style="fill:#FFC9C2;" d="M191.317,0c-15.724,0-28.479,12.754-28.479,28.479v206.12h56.957V28.479
		C219.796,12.754,207.041,0,191.317,0z"/>
	<path style="fill:#FFC9C2;" d="M320.683,0c-15.724,0-28.479,12.754-28.479,28.479v206.12h56.957V28.479
		C349.161,12.754,336.407,0,320.683,0z"/>
</g>
<path style="fill:#FFDBD6;" d="M379.608,290.315c22.005,23.45,34.486,53.601,34.486,86.528C414.094,451.493,349.98,512,256,512
	S97.906,451.493,97.906,376.843c0-32.927,12.481-63.078,34.486-86.528c3.186-25.589,14.154-48.754,30.447-67.083
	c15.064-16.976,34.691-29.787,56.957-36.534c11.457-3.482,23.609-5.348,36.204-5.348s24.747,1.866,36.204,5.348
	c22.266,6.747,41.893,19.558,56.957,36.523C365.454,241.562,376.422,264.727,379.608,290.315z"/>
<polygon style="fill:#FFC9C2;" points="282.055,347.737 229.945,347.737 225.497,360.14 256,377.296 286.503,360.14 "/>
<g>
	<path style="fill:#ED7F66;" d="M204.328,322.939c-4.713,0-8.533-3.821-8.533-8.533v-13.187l-18.978-2.452
		c-4.674-0.604-7.974-4.882-7.369-9.556c0.603-4.674,4.879-7.978,9.556-7.369l26.418,3.413c4.255,0.55,7.44,4.172,7.44,8.463v20.689
		C212.861,319.119,209.042,322.939,204.328,322.939z"/>
	<path style="fill:#ED7F66;" d="M307.672,322.939c-4.714,0-8.533-3.821-8.533-8.533v-20.688c0-4.291,3.186-7.913,7.44-8.463
		l26.418-3.413c4.674-0.61,8.952,2.695,9.556,7.369c0.603,4.674-2.695,8.952-7.371,9.556l-18.978,2.452v13.187
		C316.206,319.119,312.386,322.939,307.672,322.939z"/>
</g>
<path style="fill:#FFC9C2;" d="M284.917,393.595c-11.239,0-20.383-9.144-20.383-20.383c0-4.713-3.82-8.533-8.533-8.533
	c-4.713,0-8.533,3.821-8.533,8.533c0,11.239-9.144,20.383-20.383,20.383c-4.713,0-8.533,3.821-8.533,8.533s3.821,8.533,8.533,8.533
	c11.633,0,22.042-5.332,28.917-13.68c6.874,8.347,17.284,13.68,28.917,13.68c4.714,0,8.533-3.821,8.533-8.533
	S289.63,393.595,284.917,393.595z"/>
<path style="fill:#FEA793;" d="M289.339,351.824c-2.455-4.022-7.705-5.292-11.73-2.837L256,362.179l-21.609-13.193
	c-4.027-2.458-9.275-1.186-11.73,2.836c-2.455,4.023-1.186,9.274,2.836,11.73l26.055,15.906c1.365,0.833,2.906,1.25,4.446,1.25
	c1.541,0,3.081-0.416,4.446-1.25l26.055-15.906C290.525,361.098,291.794,355.846,289.339,351.824z"/>
<g>
</g>
<g>
</g>
<g>
</g>
<g>
</g>
<g>
</g>
<g>
</g>
<g>
</g>
<g>
</g>
<g>
</g>
<g>
</g>
<g>
</g>
<g>
</g>
<g>
</g>
<g>
</g>
<g>
</g>
</svg>
